<svg width="130" height="130" viewBox="0 0 130 130" fill="none" xmlns="http://www.w3.org/2000/svg">
<rect width="130" height="130" rx="65" fill="white" fill-opacity="0.26"/>
<path d="M86.7916 63.4584H68.5416V45.2084C68.5416 44.4017 68.2212 43.6281 67.6507 43.0576C67.0803 42.4872 66.3067 42.1667 65.5 42.1667C64.6933 42.1667 63.9196 42.4872 63.3492 43.0576C62.7788 43.6281 62.4583 44.4017 62.4583 45.2084V63.4584H44.2083C43.4016 63.4584 42.6279 63.7789 42.0575 64.3493C41.4871 64.9197 41.1666 65.6934 41.1666 66.5001C41.1666 67.3068 41.4871 68.0804 42.0575 68.6509C42.6279 69.2213 43.4016 69.5417 44.2083 69.5417H62.4583V87.7917C62.4583 88.5984 62.7788 89.3721 63.3492 89.9425C63.9196 90.513 64.6933 90.8334 65.5 90.8334C66.3067 90.8334 67.0803 90.513 67.6507 89.9425C68.2212 89.3721 68.5416 88.5984 68.5416 87.7917V69.5417H86.7916C87.5983 69.5417 88.372 69.2213 88.9424 68.6509C89.5128 68.0804 89.8333 67.3068 89.8333 66.5001C89.8333 65.6934 89.5128 64.9197 88.9424 64.3493C88.372 63.7789 87.5983 63.4584 86.7916 63.4584Z" fill="white" fill-opacity="0.8"/>
</svg>
