<svg width="22" height="22" viewBox="0 0 22 22" fill="none" xmlns="http://www.w3.org/2000/svg">
<g clip-path="url(#clip0_403_253)">
<path d="M20.4199 10.6C18.3999 5.91 14.5999 3 10.4999 3C6.39994 3 2.59994 5.91 0.579945 10.6C0.524881 10.7262 0.49646 10.8623 0.49646 11C0.49646 11.1377 0.524881 11.2738 0.579945 11.4C2.59994 16.09 6.39994 19 10.4999 19C14.5999 19 18.3999 16.09 20.4199 11.4C20.475 11.2738 20.5034 11.1377 20.5034 11C20.5034 10.8623 20.475 10.7262 20.4199 10.6ZM10.4999 17C7.31994 17 4.32994 14.71 2.59994 11C4.32994 7.29 7.31994 5 10.4999 5C13.6799 5 16.6699 7.29 18.3999 11C16.6699 14.71 13.6799 17 10.4999 17ZM10.4999 7C9.70882 7 8.93546 7.2346 8.27766 7.67412C7.61987 8.11365 7.10718 8.73836 6.80443 9.46927C6.50168 10.2002 6.42246 11.0044 6.5768 11.7804C6.73114 12.5563 7.11211 13.269 7.67152 13.8284C8.23093 14.3878 8.94366 14.7688 9.71958 14.9231C10.4955 15.0775 11.2998 14.9983 12.0307 14.6955C12.7616 14.3928 13.3863 13.8801 13.8258 13.2223C14.2653 12.5645 14.4999 11.7911 14.4999 11C14.4999 9.93913 14.0785 8.92172 13.3284 8.17157C12.5782 7.42143 11.5608 7 10.4999 7ZM10.4999 13C10.1044 13 9.7177 12.8827 9.3888 12.6629C9.05991 12.4432 8.80356 12.1308 8.65219 11.7654C8.50081 11.3999 8.4612 10.9978 8.53837 10.6098C8.61554 10.2219 8.80603 9.86549 9.08573 9.58579C9.36544 9.30608 9.7218 9.1156 10.1098 9.03843C10.4977 8.96126 10.8999 9.00087 11.2653 9.15224C11.6308 9.30362 11.9431 9.55996 12.1629 9.88886C12.3826 10.2178 12.4999 10.6044 12.4999 11C12.4999 11.5304 12.2892 12.0391 11.9142 12.4142C11.5391 12.7893 11.0304 13 10.4999 13Z" fill="white"/>
</g>
<defs>
<clipPath id="clip0_403_253">
<rect width="22" height="22" fill="white"/>
</clipPath>
</defs>
</svg>
